<svg xmlns="http://www.w3.org/2000/svg" viewBox="0 0 400 300" width="406" height="306" class="illustration styles_illustrationTablet__1DWOa"><g id="_503_spotlight_flatline" data-name="#503_spotlight_flatline"><rect x="24.16" y="22.96" width="351.69" height="254.08" fill="#231f20"></rect><path d="M375.84,277.54H24.16a.5.5,0,0,1-.5-.5V23a.5.5,0,0,1,.5-.5H375.84a.5.5,0,0,1,.5.5V277A.5.5,0,0,1,375.84,277.54Zm-351.18-1H375.34V23.46H24.66Z" fill="#231f20"></path><polygon points="277.59 237.6 258.93 49.88 237.3 45.18 93.14 231.76 277.59 237.6" fill="#e6e7e8"></polygon><path d="M277.59,237.6c0,13.29-40.87,24.09-91.59,24.29h-1.46c-21.82,0-41.88-2-57.74-5.24-21.52-4.45-35.32-11.34-35.32-19.06,0-13.42,41.67-24.3,93.06-24.3S277.59,224.18,277.59,237.6Z" fill="#fff"></path><path d="M184.54,213.3c51.39,0,93,10.88,93,24.3S236.72,261.69,186,261.89h-1.46c-21.82,0-41.88-2-57.74-5.24-21.52-4.45-35.32-11.34-35.32-19.06,0-13.42,41.67-24.3,93.06-24.3m0-1c-52.74,0-94.06,11.11-94.06,25.3,0,11.35,25.26,17.79,36.12,20,16.64,3.44,36.68,5.26,57.94,5.26H186c24.61-.1,47.72-2.68,65-7.27,10.28-2.72,27.52-8.68,27.52-18,0-14.19-41.31-25.3-94-25.3Z" fill="#231f20"></path><path d="M216,246.82l-30,15.07h-1.46c-21.82,0-41.88-2-57.74-5.24l65.33-13.31,3.87,1-27.78,8.85s8.54,1.69,11.08,1.9,25.92-7.59,25.92-7.59Z" fill="#e6e7e8"></path><path d="M192.73,237.55s-1.35,6.37,0,6.73,10.54-2.81,9.44-4.77-7.35-2-7.35-2Z" fill="#231f20"></path><path d="M193,244.81a1.41,1.41,0,0,1-.39,0c-1.57-.43-.9-4.77-.36-7.32a.5.5,0,0,1,.49-.4h2.09c.67,0,6.56.06,7.78,2.21a1.36,1.36,0,0,1-.23,1.58C201,242.64,195,244.81,193,244.81Zm.15-6.76c-.55,2.77-.68,5.46-.26,5.76.91.25,7.39-1.9,8.7-3.59.24-.3.17-.43.15-.46-.7-1.25-4.61-1.71-6.91-1.71Z" fill="#231f20"></path><path d="M189.18,179.64s1.35,27.18,1.1,28.89.05,24.37-.19,30l8.65,3.22s3.13-48.48,3.43-55.34.65-9.1.65-9.1Z" fill="#231f20"></path><path d="M198.74,242.25l-.17,0L189.92,239a.5.5,0,0,1-.33-.49c.12-2.83.11-10.15.1-16.6,0-6.74,0-12.56.1-13.45.19-1.37-.74-21.25-1.11-28.8a.52.52,0,0,1,.42-.52l13.63-2.32a.51.51,0,0,1,.44.13.52.52,0,0,1,.14.44s-.35,2.31-.64,9-3.4,54.86-3.43,55.35a.51.51,0,0,1-.22.39A.57.57,0,0,1,198.74,242.25Zm-8.14-4.06,7.69,2.85c.38-5.87,3.1-48.32,3.38-54.65.21-4.83.44-7.37.57-8.47l-12.54,2.13c.18,3.65,1.31,26.91,1.08,28.55-.12.82-.11,7.17-.09,13.31C190.7,228.42,190.71,235.14,190.6,238.19Z" fill="#231f20"></path><path d="M194.17,177.92s6.42,37.71,6.9,41.39,2.56,21.55,2.56,21.55l10.82,1.22-1.75-64.16Z" fill="#231f20"></path><path d="M214.45,242.58h-.06l-10.82-1.23a.5.5,0,0,1-.44-.44c0-.18-2.09-17.91-2.56-21.54s-6.83-41-6.89-41.36a.47.47,0,0,1,.11-.41.49.49,0,0,1,.38-.18H212.7a.51.51,0,0,1,.5.49L215,242.07a.55.55,0,0,1-.16.38A.51.51,0,0,1,214.45,242.58Zm-10.37-2.18,9.85,1.12-1.72-63.1H194.76c.82,4.8,6.36,37.43,6.8,40.82S203.77,237.75,204.08,240.4Z" fill="#231f20"></path><path d="M219.5,195.18a.5.5,0,0,1-.5-.5,10.31,10.31,0,0,0-.18-1.92c-.16-.61-1.28-1-3.33-1.28-1.16-.13-4.23-.49-4.9.18a5.76,5.76,0,0,0-.71,2.52.49.49,0,0,1-.54.45.51.51,0,0,1-.46-.54c0-.4.26-2.39,1-3.14s2.28-.86,5.71-.47c2.65.31,3.9.92,4.19,2a11.12,11.12,0,0,1,.21,2.16A.5.5,0,0,1,219.5,195.18Z" fill="#231f20"></path><polygon points="202.16 213.2 202.82 193.77 226.74 195.08 225.67 213.2 202.16 213.2" fill="#fff"></polygon><path d="M225.67,213.7h-23.5a.48.48,0,0,1-.36-.15.47.47,0,0,1-.14-.37l.65-19.42a.5.5,0,0,1,.16-.36.54.54,0,0,1,.37-.13l23.91,1.31a.51.51,0,0,1,.35.17.48.48,0,0,1,.12.36l-1.06,18.12A.5.5,0,0,1,225.67,213.7Zm-23-1H225.2l1-17.15L203.3,194.3Z" fill="#231f20"></path><polygon points="202.16 213.2 198.66 211.98 199.88 194.83 202.82 193.77 202.16 213.2" fill="#fff"></polygon><path d="M202.17,213.7a.47.47,0,0,1-.17,0l-3.51-1.22a.5.5,0,0,1-.33-.51l1.22-17.14a.51.51,0,0,1,.33-.44l2.94-1.06a.51.51,0,0,1,.46.07.5.5,0,0,1,.21.42l-.65,19.43a.51.51,0,0,1-.22.39A.51.51,0,0,1,202.17,213.7Zm-3-2.07,2.51.87.6-18-1.93.7Z" fill="#231f20"></path><path d="M210.85,184.47a24.13,24.13,0,0,1,.29,3.59c-.15.37-1,2.24-.74,3.2s4,2.34,5.29.72.44-9.27.44-9.27Z" fill="#fff"></path><path d="M213.82,193.23a5.74,5.74,0,0,1-1.19-.14c-1.17-.26-2.52-.91-2.71-1.72a6.69,6.69,0,0,1,.72-3.4,22,22,0,0,0-.29-3.43.51.51,0,0,1,.34-.55l5.28-1.76a.5.5,0,0,1,.43.06.49.49,0,0,1,.23.36c.08.81.79,7.92-.55,9.64A2.72,2.72,0,0,1,213.82,193.23Zm-2.42-8.42c.39,3,.25,3.32.2,3.44l0,.1a5.51,5.51,0,0,0-.67,2.79,3.76,3.76,0,0,0,2.25,1c.47.07,1.63.18,2.15-.49.77-1,.67-5.37.4-8.3Z" fill="#231f20"></path><path d="M196,132.24c-.81,0-1.62-.12-2.56-.17s-2-.33-2-1.2.83-1.39.61-2.11a1.82,1.82,0,0,0-.32-.51,8.05,8.05,0,0,1,1-11.12c-.24.09-.51-.15-.54-.4a1.07,1.07,0,0,1,.25-.72,5.08,5.08,0,0,1,2.38-1.55,15.31,15.31,0,0,1,9-.31c2.28.59,5.06,2.29,4.85,5a2.16,2.16,0,0,1-1.79,2c-.41,2.94-1.87,5-3.72,7.17a11.81,11.81,0,0,1-4.64,3.39A6.4,6.4,0,0,1,196,132.24Z" fill="#fff"></path><path d="M196,132.74h-.08c-.48,0-1-.05-1.48-.09l-1.1-.08c-1.52-.08-2.47-.7-2.52-1.67a2.29,2.29,0,0,1,.39-1.26c.19-.34.3-.56.25-.73a1.21,1.21,0,0,0-.21-.31,8.57,8.57,0,0,1,.51-11.35,1,1,0,0,1-.19-.46,1.47,1.47,0,0,1,.35-1.07,5.5,5.5,0,0,1,2.6-1.73,16,16,0,0,1,9.34-.32c2.76.7,5.45,2.69,5.23,5.55a2.74,2.74,0,0,1-1.85,2.44,14.57,14.57,0,0,1-3.78,7.07,12.28,12.28,0,0,1-4.84,3.53A6.93,6.93,0,0,1,196,132.74Zm-3.39-16.11a.5.5,0,0,1,.43.24.49.49,0,0,1-.1.63,7.56,7.56,0,0,0-.94,10.43,2.13,2.13,0,0,1,.41.68,1.93,1.93,0,0,1-.32,1.51,1.58,1.58,0,0,0-.27.72c0,.48.86.7,1.58.73l1.13.08c.48,0,.94.08,1.4.09h0a6.14,6.14,0,0,0,2.33-.41,11.25,11.25,0,0,0,4.44-3.25c2-2.37,3.24-4.26,3.6-6.92a.52.52,0,0,1,.46-.43,1.66,1.66,0,0,0,1.33-1.58c.2-2.61-2.72-4.06-4.47-4.51a14.81,14.81,0,0,0-8.75.29,4.46,4.46,0,0,0-2.14,1.38.61.61,0,0,0-.16.32Z" fill="#231f20"></path><path d="M207.75,125.45s2.2,3.37,1.74,4.06-2,.23-2,.23" fill="#fff"></path><path d="M208.51,130.39a4.21,4.21,0,0,1-1.15-.18.49.49,0,0,1-.33-.62.5.5,0,0,1,.62-.33c.49.15,1.27.21,1.42,0a11.54,11.54,0,0,0-1.74-3.5.5.5,0,0,1,.14-.69.49.49,0,0,1,.69.14c1.09,1.66,2.28,3.81,1.74,4.61A1.59,1.59,0,0,1,208.51,130.39Z" fill="#231f20"></path><path d="M207.29,121c1.41,1.16,1,3.59,1,5.17,0,2.23-.1,4.46-.23,6.68-.08,1.41-3.74,1.43-4.39,1l.55,5.58-7.67-3,.34-4.61a4.69,4.69,0,0,0,3.93-2.85c1.44-2.87,1.26-9.12,1.26-9.12S205.92,119.89,207.29,121Z" fill="#fff"></path><path d="M204.19,140a.57.57,0,0,1-.18,0l-7.67-3a.49.49,0,0,1-.31-.5l.33-4.61a.5.5,0,0,1,.5-.46,4.18,4.18,0,0,0,3.48-2.57c1.37-2.73,1.21-8.83,1.21-8.89a.54.54,0,0,1,.14-.36.46.46,0,0,1,.38-.15c.5,0,4.09,0,5.54,1.23s1.26,3.12,1.18,4.72c0,.3,0,.59,0,.85,0,2.22-.11,4.47-.23,6.7a1.51,1.51,0,0,1-.95,1.25,6.38,6.38,0,0,1-3.37.4l.48,4.86a.49.49,0,0,1-.19.44A.5.5,0,0,1,204.19,140Zm-7.14-3.81,6.57,2.55-.47-4.77a.5.5,0,0,1,.77-.46,5.42,5.42,0,0,0,3.24-.21c.23-.13.36-.26.37-.41.13-2.21.2-4.45.23-6.65,0-.28,0-.57,0-.89.07-1.38.16-3.09-.82-3.89s-3.15-1-4.41-1c0,1.59-.08,6.35-1.33,8.84a5.28,5.28,0,0,1-3.9,3.07Z" fill="#231f20"></path><path d="M203.47,126.86a3.1,3.1,0,0,0-.62-1.53,4.35,4.35,0,0,0-.8-1,1.45,1.45,0,0,0-1.2-.37,1.34,1.34,0,0,0-.88.68,2.68,2.68,0,0,0-.28,1.11,4.78,4.78,0,0,0,2.19,4.25l-.13-.14" fill="#fff"></path><path d="M201.8,130.47a.38.38,0,0,1-.19-.06,5.26,5.26,0,0,1-2.42-4.7,2.89,2.89,0,0,1,.35-1.32,1.81,1.81,0,0,1,1.21-.93,1.92,1.92,0,0,1,1.62.48,4.87,4.87,0,0,1,.9,1.12,3.45,3.45,0,0,1,.7,1.8.5.5,0,0,1-.5.5h0a.5.5,0,0,1-.5-.49,2.71,2.71,0,0,0-.54-1.27,4,4,0,0,0-.7-.9,1,1,0,0,0-.78-.26.82.82,0,0,0-.54.44,1.94,1.94,0,0,0-.22.89,4.29,4.29,0,0,0,1.7,3.62.4.4,0,0,1,.23.12.61.61,0,0,1,.08.73A.56.56,0,0,1,201.8,130.47Z" fill="#231f20"></path><path d="M195,137.84l.66-2.45,9.82.61,1.06,3.65A19.33,19.33,0,0,1,195,137.84Z" fill="#fff"></path><path d="M203.74,140.38a20.54,20.54,0,0,1-9-2.09.49.49,0,0,1-.27-.58l.67-2.45a.51.51,0,0,1,.51-.37l9.83.61a.48.48,0,0,1,.44.36l1.06,3.65a.51.51,0,0,1-.05.4.52.52,0,0,1-.33.23A15.1,15.1,0,0,1,203.74,140.38Zm-8.18-2.81a19.53,19.53,0,0,0,10.31,1.68l-.8-2.78-9.06-.56Z" fill="#231f20"></path><path d="M209.41,139.88s-12.57-6-19.55-2.25-2.41,26.14-1.9,29.88-.26,15.25-.26,15.25l28-1.08S212.58,143.33,209.41,139.88Z" fill="#1A2129"></path><path d="M209.71,141.83s-4.66-.59-5.4,6.31S209.55,186,209.55,186l9.44-1.17s-3.52-26.86-5-34.2S211.22,141.65,209.71,141.83Z" fill="#1A2129"></path><path d="M209.16,184.45a.49.49,0,0,1-.49-.42c0-.28-4.4-28.41-4.92-34.38-.3-3.42.37-6.16,1.88-7.7a3.74,3.74,0,0,1,2.93-1.21.5.5,0,1,1-.06,1,2.8,2.8,0,0,0-2.16.91c-.75.77-2,2.69-1.59,6.92.52,5.93,4.86,34,4.91,34.31a.51.51,0,0,1-.42.57Z" fill="#231f20"></path><path d="M204.34,240.12s-.1,7,.88,7.35,11.43,1,10.78-.66-6-1.55-6.45-2.44-.33-5.55-.33-5.55Z" fill="#231f20"></path><path d="M211.29,248.38a39.53,39.53,0,0,1-6.23-.44c-.88-.29-1.29-2.92-1.22-7.83a.51.51,0,0,1,.37-.47l4.88-1.31a.53.53,0,0,1,.44.09.5.5,0,0,1,.19.41,20.29,20.29,0,0,0,.27,5.3,8.17,8.17,0,0,0,2.13.56c1.9.37,3.86.74,4.34,1.94a.83.83,0,0,1-.18.91C215.68,248.19,213.54,248.38,211.29,248.38Zm-6.45-7.87c0,2.89.21,6.1.61,6.52,1.11.36,9,.64,10-.11-.4-.64-2.29-1-3.56-1.25-1.64-.31-2.52-.5-2.82-1.06-.44-.81-.44-3.71-.41-5.14Z" fill="#231f20"></path><circle cx="247.15" cy="49.87" r="11.77" fill="#fff"></circle><path d="M247.16,62.15a12.28,12.28,0,1,1,12.27-12.28A12.3,12.3,0,0,1,247.16,62.15Zm0-23.55a11.28,11.28,0,1,0,11.27,11.27A11.29,11.29,0,0,0,247.16,38.6Z" fill="#231f20"></path></g></svg>