<svg xmlns="http://www.w3.org/2000/svg" viewBox="0 0 400 300" width="406" height="306" class="illustration styles_illustrationTablet__1DWOa"><g id="_29" data-name="#29"><path d="M347.26,232.91H52.74a.5.5,0,0,1-.5-.5.51.51,0,0,1,.5-.5H347.26a.51.51,0,0,1,.5.5A.5.5,0,0,1,347.26,232.91Z" fill="#d1d3d4"></path><rect x="79.49" y="39.42" width="241.01" height="167.08" rx="15.49" transform="translate(-0.53 0.86) rotate(-0.25)" fill="#fff"></rect><path d="M95.28,207.41a16,16,0,0,1-16-15.88l-.58-136.1a15.93,15.93,0,0,1,15.88-16l210-.91h.07a16,16,0,0,1,15.95,15.88l.58,136.1a15.94,15.94,0,0,1-15.88,16l-210,.9Zm209.38-168-210,.9a15,15,0,0,0-15,15.1l.59,136.1a15,15,0,0,0,15,15h.06l210-.91a15,15,0,0,0,15-15.09l-.59-136.1a15,15,0,0,0-15-15Zm0-.46h0Z" fill="#231f20"></path><path d="M241.54,235.42,226.6,206.19l-58.25.25,17.76,34.72-21.84.09a3.64,3.64,0,0,0-3.63,3.66h0a3.64,3.64,0,0,0,3.65,3.63l69.38-.22A8.87,8.87,0,0,0,241.54,235.42Z" fill="#fff"></path><path d="M164.28,249a4.1,4.1,0,0,1-2.91-7,4,4,0,0,1,2.89-1.21l21.1-.09L168,206.65a.45.45,0,0,1,.4-.66l58.25-.25h0a.44.44,0,0,1,.4.24L242,235.21h0a9.31,9.31,0,0,1-8.28,13.56l-69.38.23Zm4.82-42.1,17.42,34a.48.48,0,0,1,0,.45.47.47,0,0,1-.39.22l-21.84.09a3.19,3.19,0,1,0,0,6.37h0l69.38-.22a8.41,8.41,0,0,0,7.47-12.24l-14.82-29Z" fill="#231f20"></path><line x1="164.27" y1="241.25" x2="234.23" y2="240.95" fill="#fff"></line><path d="M164.27,241.71a.46.46,0,0,1,0-.91l70-.3h0a.46.46,0,1,1,0,.91l-70,.3Z" fill="#231f20"></path><path d="M84.18,63.48a.5.5,0,0,1-.5-.5.5.5,0,0,1,.5-.5l230.9-1h0a.5.5,0,1,1,0,1l-230.91,1Z" fill="#d1d3d4"></path><path d="M84.69,182.58a.51.51,0,0,1-.5-.5.5.5,0,0,1,.5-.5l230.91-1h0a.51.51,0,0,1,.5.5.5.5,0,0,1-.5.5l-230.91,1Z" fill="#d1d3d4"></path><path d="M187.3,52.11a.5.5,0,0,1-.5-.5.5.5,0,0,1,.5-.5L203.07,51h0a.51.51,0,0,1,.5.5.5.5,0,0,1-.5.5l-15.78.07Z" fill="#d1d3d4"></path><rect x="119.85" y="136.64" width="13.81" height="116.03" transform="translate(174.77 -32.61) rotate(45)" fill="#231f20"></rect><path d="M90.61,241.06a.5.5,0,0,1-.35-.14l-9.77-9.77a.5.5,0,0,1,0-.7l82.05-82a.5.5,0,0,1,.7,0l9.77,9.77a.5.5,0,0,1,0,.7l-82,82A.52.52,0,0,1,90.61,241.06ZM81.55,230.8l9.06,9.06L172,158.52l-9.06-9.06Z" fill="#231f20"></path><rect x="87.16" y="173.79" width="25.92" height="95" rx="10.5" transform="translate(185.8 -5.98) rotate(45)" fill="#ffffff"></rect><circle cx="198.24" cy="123.17" r="71.25" fill="#fff"></circle><path d="M198.24,194.88a71.72,71.72,0,1,1,50.73-21A71.51,71.51,0,0,1,198.24,194.88Zm0-142.43a70.72,70.72,0,1,0,50,20.69A70.56,70.56,0,0,0,198.24,52.45Z" fill="#231f20"></path><circle cx="198.24" cy="123.17" r="59.37" fill="#fff"></circle><path d="M198.24,183a59.85,59.85,0,1,1,42.34-17.51A59.68,59.68,0,0,1,198.24,183Zm0-118.69a58.85,58.85,0,1,0,41.63,17.22A58.7,58.7,0,0,0,198.24,64.32Z" fill="#231f20"></path><path d="M215.78,104.62h-.06a.49.49,0,0,1-.43-.56,6.18,6.18,0,0,0,0-2.32c-.12-.1-1-.66-1.94-1.19-4.64-2.75-7.19-4.46-7.4-5.61a.83.83,0,0,1,.17-.7c.93-1.16,7-8,8.34-9.46l-.74-1.49a.49.49,0,0,1,.22-.67.5.5,0,0,1,.67.23l.89,1.78a.48.48,0,0,1-.07.56c-.07.08-7.32,8.19-8.49,9.62.29.94,5.09,3.8,6.92,4.88a11.43,11.43,0,0,1,2.24,1.45c.45.61.3,2.33.22,3A.5.5,0,0,1,215.78,104.62Z" fill="#231f20"></path><path d="M198.94,104.11a.48.48,0,0,1-.26-.07c-1.47-.92-8.81-5.61-9.06-7.81a1,1,0,0,1,.29-.88L199,86.23l-1.24-1.43a.52.52,0,0,1,.06-.71.5.5,0,0,1,.7.06l1.54,1.78a.51.51,0,0,1,0,.68l-9.44,9.44c.13,1.33,5.1,5,8.59,7.14a.5.5,0,0,1,.15.69A.48.48,0,0,1,198.94,104.11Z" fill="#231f20"></path><path d="M181,109.24a.5.5,0,0,1-.47-.3l-3.76-9c-2.46-.4-9.12-1.66-9.8-3.48a1.13,1.13,0,0,1,.22-1.13c1.6-1.92,2.51-6.48,2.52-6.53a.5.5,0,0,1,.59-.39.48.48,0,0,1,.39.58c0,.2-1,4.87-2.73,7-.07.09-.06.12-.05.14.34.92,5.09,2.22,9.29,2.89a.49.49,0,0,1,.38.3l3.88,9.3a.52.52,0,0,1-.27.66A.63.63,0,0,1,181,109.24Z" fill="#231f20"></path><path d="M177.69,133.53s4.74,12.66,26,12.13,45.77-26.89,43.3-29.88-10.95-3.7-10.95-3.7,6.68-3.69,3.17-5.45-55.74,6.15-63.48,10.55S177.69,133.53,177.69,133.53Z" fill="#ffffff"></path><path d="M216.25,139.12a42.34,42.34,0,0,0,7.39-4.11c6-4.14,11.07-10.44,11.25-17.7a5.91,5.91,0,0,0-.73-3.39,7.23,7.23,0,0,0-2.56-2.11,24,24,0,0,0-5.58-2.67,21.29,21.29,0,0,0-7.17-.41c-10.44.7-21.69,2.62-30.54,8.62-5.2,3.54-13.11,12.57-7.39,18.66,5.23,5.56,15.17,6.67,22.33,6.22A39.14,39.14,0,0,0,216.25,139.12Z" fill="#231f20"></path><path d="M200.47,142.81c-5.27,0-14.65-.86-19.91-6.46a7.46,7.46,0,0,1-2.07-6.2c.55-5,5.33-10.35,9.54-13.21,9.73-6.6,22.23-8.13,30.79-8.71a21.88,21.88,0,0,1,7.33.43,24.32,24.32,0,0,1,5.7,2.72,7.66,7.66,0,0,1,2.73,2.27,6.48,6.48,0,0,1,.81,3.67c-.16,6.55-4.34,13.15-11.46,18.1a43.08,43.08,0,0,1-7.48,4.16h0a39.19,39.19,0,0,1-13.17,3.14C202.61,142.76,201.64,142.81,200.47,142.81Zm21.14-33.69c-.94,0-1.86,0-2.72.1-8.44.57-20.77,2.08-30.3,8.54-3.36,2.29-8.56,7.5-9.11,12.5a6.53,6.53,0,0,0,1.81,5.41c6.13,6.52,18.33,6.29,21.93,6.06a38.08,38.08,0,0,0,12.84-3.07h0a42,42,0,0,0,7.3-4.06c6.86-4.77,10.88-11.07,11-17.3a5.39,5.39,0,0,0-.64-3.11,7,7,0,0,0-2.41-2,23.07,23.07,0,0,0-5.46-2.62A15.79,15.79,0,0,0,221.61,109.12Z" fill="#231f20"></path><path d="M202.13,139c20.92-.17,38.33-18.11,30.06-27.43s-38.67-18.86-55.91.53C163.78,126.13,181.2,139.16,202.13,139Z" fill="#fff"></path><path d="M201.7,139.48c-13.61,0-25.53-5.4-29.08-13.21-1.48-3.27-2.12-8.44,3.29-14.52,8.41-9.46,19.26-11.45,26.9-11.45h0c13,0,25,5.63,29.72,10.92,2.52,2.85,2.91,6.67,1.08,10.77-3.78,8.5-16.6,17.37-31.52,17.49Zm1.11-38.18c-7.43,0-18,1.93-26.16,11.11-4,4.5-5.07,9.15-3.12,13.45,3.34,7.35,15.15,12.62,28.19,12.62h.4c14.52-.12,27-8.68,30.62-16.89,1.17-2.64,2-6.46-.92-9.71-4.54-5.12-16.24-10.57-29-10.58Z" fill="#231f20"></path><ellipse cx="172.34" cy="125.96" rx="14.51" ry="14.08" transform="translate(-39.89 103.04) rotate(-30)" fill="#fff"></ellipse><path d="M172,140.64a14.52,14.52,0,0,1-12.65-7.18h0A14.27,14.27,0,0,1,158,122.33a15.33,15.33,0,0,1,18.37-10.61,14.3,14.3,0,0,1,9,6.73,14.81,14.81,0,0,1-5.71,20.13A15.17,15.17,0,0,1,172,140.64Zm.69-28.38a14.21,14.21,0,0,0-7.13,1.94,14.06,14.06,0,0,0-6.59,8.4A13.24,13.24,0,0,0,160.21,133h0a14,14,0,0,0,24.26-14,13.31,13.31,0,0,0-8.35-6.26A14.34,14.34,0,0,0,172.68,112.26Z" fill="#231f20"></path><path d="M224.86,148.5a6.4,6.4,0,0,1-1-.06c-.48-.1-1.26-1-5.57-6.39-3.2-4-7.6-9.53-8.81-10.19a.59.59,0,0,0-.52,0c-.54.23-1.67,1.33-3.08,6.16l-.08.27a.51.51,0,0,1-.64.32.5.5,0,0,1-.31-.63l.07-.24c1.18-4,2.38-6.26,3.66-6.8a1.54,1.54,0,0,1,1.37.07c1.3.7,4.6,4.77,9.13,10.44a76,76,0,0,0,5.07,6.07,51.84,51.84,0,0,0,5.22-.21.49.49,0,0,1,.54.46.5.5,0,0,1-.46.53C229.05,148.3,226.44,148.5,224.86,148.5Z" fill="#231f20"></path><line x1="175.4" y1="128.08" x2="167.49" y2="128.61" fill="#fff"></line><path d="M167.49,129.11a.5.5,0,0,1,0-1l7.91-.53a.51.51,0,0,1,.53.47.5.5,0,0,1-.47.53l-7.91.53Z" fill="#231f20"></path><path d="M170.3,124.21c.35.71.53,8.62.53,8.62" fill="#fff"></path><path d="M170.83,133.33a.5.5,0,0,1-.5-.49,73.39,73.39,0,0,0-.48-8.41.52.52,0,0,1,.25-.66.49.49,0,0,1,.65.22c.36.72.53,6.41.58,8.83a.51.51,0,0,1-.49.51Z" fill="#231f20"></path><line x1="168.89" y1="121.05" x2="161.86" y2="121.22" fill="#fff"></line><path d="M161.86,121.72a.5.5,0,0,1-.5-.48.5.5,0,0,1,.49-.52l7-.17h0a.49.49,0,0,1,.5.49.5.5,0,0,1-.48.51l-7,.17Z" fill="#231f20"></path><line x1="164.85" y1="116.65" x2="165.03" y2="124.56" fill="#fff"></line><path d="M165,125.06a.48.48,0,0,1-.5-.48l-.18-7.92a.5.5,0,0,1,.49-.51h0a.51.51,0,0,1,.5.49l.18,7.91a.5.5,0,0,1-.49.51Z" fill="#231f20"></path><path d="M204,130.23H204a.51.51,0,0,1-.4-.59c.13-.67,3-16.41-13.57-22.1a.51.51,0,0,1-.31-.64.5.5,0,0,1,.63-.31c9.08,3.13,12.47,9.28,13.71,13.9a22.63,22.63,0,0,1,.53,9.34A.51.51,0,0,1,204,130.23Z" fill="#d1d3d4"></path><path d="M217.57,125.55a.45.45,0,0,1-.16,0,.5.5,0,0,1-.31-.63c0-.11,3.59-11.18-9-20.53a.51.51,0,0,1-.1-.7.5.5,0,0,1,.7-.1c6.86,5.11,9,10.7,9.64,14.5a15.91,15.91,0,0,1-.34,7.15A.49.49,0,0,1,217.57,125.55Z" fill="#d1d3d4"></path><path d="M204.81,158.72a.52.52,0,0,1-.21,0l-2.72-1.24c-1.52-.09-17.54-1.1-22.52-3.09a2.08,2.08,0,0,1-1.37-1.6c-.76-4,9.26-13.48,10.4-14.54a.5.5,0,0,1,.71,0,.5.5,0,0,1,0,.71c-3,2.78-10.65,10.66-10.1,13.63a1.1,1.1,0,0,0,.76.85c5,2,22.13,3,22.3,3a.58.58,0,0,1,.18,0l2.81,1.28a.49.49,0,0,1,.24.66A.48.48,0,0,1,204.81,158.72Z" fill="#231f20"></path><path d="M232.79,139.33c-2.7,0-4.69-8.09-5.25-10.6a.52.52,0,0,1,.39-.6.51.51,0,0,1,.59.38c1,4.77,3,9.82,4.26,9.82h.05c1.95-.19,9.26-3.56,12.85-5.31a.5.5,0,0,1,.46,0l2.8,1.53a.49.49,0,0,1,.2.68.5.5,0,0,1-.68.2L245.88,134c-1.6.78-10.52,5.05-12.95,5.3Z" fill="#231f20"></path><path d="M177.32,161.53c-5.86,0-13-3.33-15.36-9.2-1.05-2.65-1.42-6.77.23-9.56a7.3,7.3,0,0,1,3.57-2.83c.51-.25,1-.5,1.55-.81a.5.5,0,0,1,.69.17.51.51,0,0,1-.17.69c-.56.33-1.11.59-1.64.85a6.41,6.41,0,0,0-3.14,2.44c-1.42,2.39-1.15,6.18-.16,8.68,2.26,5.67,9.43,8.82,15.05,8.56a.47.47,0,0,1,.52.48.5.5,0,0,1-.48.52Z" fill="#d1d3d4"></path><path d="M154.64,132.39a6.33,6.33,0,0,1-.86-.06c-3.24-.46-6-3.28-7.21-5.71a15.28,15.28,0,0,1-.95-10.49,19.45,19.45,0,0,1,5.45-9,.5.5,0,0,1,.7.72,18.31,18.31,0,0,0-5.18,8.56,14.27,14.27,0,0,0,.88,9.8c1.33,2.69,4,4.81,6.45,5.16a4.84,4.84,0,0,0,4.41-1.69.5.5,0,0,1,.71,0,.5.5,0,0,1,0,.7A5.89,5.89,0,0,1,154.64,132.39Z" fill="#d1d3d4"></path><path d="M289.5,202.64a46.32,46.32,0,0,0-11.82-7.71c-.35,12.64,4.78,24.27,9.52,32.22h15.41" fill="#fff"></path><path d="M302.61,227.65H287.2a.5.5,0,0,1-.43-.24c-4.58-7.68-9.95-19.55-9.59-32.49a.51.51,0,0,1,.23-.41.5.5,0,0,1,.46,0,46.35,46.35,0,0,1,12,7.79.5.5,0,0,1-.66.75,48,48,0,0,0-11-7.32c-.14,12.28,4.93,23.54,9.31,31h15.13a.5.5,0,0,1,.5.5A.5.5,0,0,1,302.61,227.65Z" fill="#231f20"></path><path d="M311.59,206a73.67,73.67,0,0,0-16.08-33c-3.2,9.73-6.83,20.6-6,29.64a106.16,106.16,0,0,0,5.33,24.51h16.58" fill="#fff"></path><path d="M311.41,227.65H294.83a.5.5,0,0,1-.47-.33A107.18,107.18,0,0,1,289,202.68c-.81-9,2.75-19.83,5.88-29.39l.15-.44a.53.53,0,0,1,.37-.34.52.52,0,0,1,.47.15,74.75,74.75,0,0,1,16.21,33.28.5.5,0,0,1-.39.59.51.51,0,0,1-.59-.4A74.19,74.19,0,0,0,295.71,174c-3.08,9.37-6.5,19.93-5.71,28.6a105.45,105.45,0,0,0,5.19,24.06h16.22a.5.5,0,0,1,.5.5A.5.5,0,0,1,311.41,227.65Z" fill="#231f20"></path><path d="M319.78,227.16H305.1c-.14-4.35.84-10.93,5.56-19.47.32-.57.63-1.12.94-1.65,8.5-14.4,16.28-14.24,16.28-14.24C331.17,207,324.22,220.46,319.78,227.16Z" fill="#fff"></path><path d="M319.78,227.66H305.1a.51.51,0,0,1-.5-.49c-.13-4.11.73-10.87,5.62-19.72.33-.58.64-1.12.94-1.66,8.56-14.49,16.42-14.46,16.73-14.49a.49.49,0,0,1,.48.39c3.33,15.35-3.69,29-8.17,35.74A.5.5,0,0,1,319.78,227.66Zm-14.19-1h13.92c4.36-6.64,11-19.68,8-34.33-1.64.22-8.3,1.85-15.45,14-.31.53-.61,1.08-.93,1.64C306.51,216.25,305.54,222.63,305.59,226.66Z" fill="#231f20"></path><polygon points="317.11 250.44 288.32 250.44 283.68 227.16 321.75 227.16 317.11 250.44" fill="#231f20"></polygon><path d="M275.58,119.91a.5.5,0,0,1-.33-.12.51.51,0,0,1-.05-.71L300,90.93a.49.49,0,0,1,.7-.05.51.51,0,0,1,.05.71L276,119.74A.51.51,0,0,1,275.58,119.91Z" fill="#d1d3d4"></path><path d="M294.35,143.94a.52.52,0,0,1-.33-.12.51.51,0,0,1,0-.71l10.88-12.76a.52.52,0,0,1,.71-.06.51.51,0,0,1,.05.71l-10.88,12.76A.49.49,0,0,1,294.35,143.94Z" fill="#d1d3d4"></path><path d="M89.37,132.68a.5.5,0,0,1-.35-.86l29.28-28.53a.5.5,0,1,1,.7.71L89.72,132.54A.52.52,0,0,1,89.37,132.68Z" fill="#d1d3d4"></path></g></svg>